<svg xmlns="http://www.w3.org/2000/svg" fill="none" viewBox="0 0 128 36">
  <style>
    .fill-primary {
      fill: oklch(83% 0.1651 79.24);
    }

    .fill-white {
      fill: #fff;
    }

    .fill-text {
      fill: oklch(25% 0.0749 260.78);
    }

    @media (prefers-color-scheme: dark) {
      .fill-text {
        fill: rgb(240, 246, 252);
      }
    }
  </style>
  <g>
    <path class="fill-primary" d="M34.048 0H2.372C1.062 0 0 1.05 0 2.345v31.31C0 34.95 1.062 36 2.372 36h31.676c1.31 0 1.952-.705 1.952-2V2c0-1.295-.642-2-1.952-2Z"/>
    <path class="fill-white" d="M32.698 13.458c0-.058 0-.11-.01-.164v-.048l-2.43-7.696a2.71 2.71 0 0 0-2.602-1.89H6.377c-1.477 0-2.675 1.189-2.675 2.644v23.392c0 1.46 1.198 2.644 2.675 2.644h22.898c.875 0 1.677-.4 2.196-1.097a2.648 2.648 0 0 0 .405-2.398l-1.99-6.303 2.802-8.866v-.049c.015-.053.01-.106.01-.164v-.005ZM28.86 5.98l2.137 6.758h-7.658L22.15 8.972l-1.222-3.867h6.724c.558 0 1.042.353 1.208.88V5.98Zm-23.7 8.199h7.728v7.638H5.16v-7.638ZM14.345 5.1h5.052l1.188 3.766 1.223 3.867h-7.463V5.095 5.1Zm0 9.079h7.463L20.6 18.002l-1.203 3.815h-5.052v-7.638ZM5.16 6.304c0-.663.547-1.204 1.217-1.204h6.51v7.638H5.16V6.304Zm0 23.392v-6.434h7.727V30.9h-6.51c-.67 0-1.217-.541-1.217-1.204Zm9.184-6.434h5.052l1.203 3.814 1.208 3.824h-7.463v-7.638Zm15.948 7.125c-.24.324-.611.513-1.022.513h-5.932l-1.203-3.814-1.208-3.824h7.658l1.898 6.014c.122.381.053.792-.186 1.116l-.005-.005Zm-1.707-8.57h-7.658l1.208-3.824 1.203-3.814h7.658l-2.41 7.638Z"/>
    <path class="fill-text" d="M60 11.84h-8.728v4.243h8.568v4.84h-8.568V29H46V7h14v4.84Zm6.727-.412a2.713 2.713 0 0 1-1.976.817c-.763 0-1.428-.27-1.976-.817-.548-.546-.826-1.194-.826-1.953 0-.759.273-1.412.826-1.953.553-.542 1.208-.817 1.976-.817s1.428.27 1.975.817c.548.541.827 1.194.827 1.953 0 .759-.274 1.412-.826 1.953ZM62.413 28.99V13.6h4.67v15.39h-4.67Zm12.27-5.849c.538 1.436 1.785 2.156 3.737 2.156 1.266 0 2.264-.391 2.988-1.17l3.736 2.123c-1.535 2.112-3.8 3.17-6.788 3.17-2.616 0-4.71-.768-6.274-2.31-1.57-1.537-2.353-3.48-2.353-5.82 0-2.34.773-4.254 2.318-5.801 1.546-1.552 3.536-2.325 5.967-2.325 2.264 0 4.147.773 5.653 2.325 1.507 1.552 2.255 3.485 2.255 5.8 0 .658-.064 1.272-.186 1.847H74.678l.005.005Zm-.093-3.447h6.696c-.455-1.619-1.556-2.431-3.302-2.431-1.745 0-2.939.812-3.394 2.431Zm13.983 9.296V6.517h4.67V28.99h-4.67Zm19.405-21.55h4.671v21.55h-4.671v-1.445c-1.1 1.252-2.646 1.876-4.641 1.876s-3.81-.783-5.262-2.354c-1.453-1.572-2.181-3.496-2.181-5.773 0-2.276.723-4.2 2.18-5.771 1.453-1.572 3.209-2.355 5.263-2.355s3.541.629 4.641 1.876V7.44Zm-6.387 16.595c.685.677 1.58 1.016 2.68 1.016s1.995-.339 2.68-1.015c.685-.677 1.027-1.59 1.027-2.742 0-1.15-.342-2.064-1.027-2.74-.685-.677-1.58-1.016-2.68-1.016s-1.995.339-2.68 1.016c-.685.676-1.027 1.59-1.027 2.74 0 1.151.342 2.065 1.027 2.741Zm18.746-5.941c0 .31.264.561.792.754.528.194 1.169.392 1.917.585a17.07 17.07 0 0 1 2.245.755c.748.309 1.384.816 1.912 1.522.528.71.797 1.595.797 2.664 0 1.663-.621 2.92-1.868 3.77-1.247.851-2.783 1.277-4.612 1.277-3.281 0-5.512-1.218-6.695-3.665l4.049-2.276c.416 1.213 1.296 1.817 2.646 1.817 1.12 0 1.682-.319 1.682-.952 0-.31-.264-.566-.792-.769a17.858 17.858 0 0 0-1.917-.6 15.846 15.846 0 0 1-2.245-.768 4.779 4.779 0 0 1-1.912-1.494c-.528-.676-.797-1.508-.797-2.494 0-1.6.587-2.842 1.761-3.722 1.173-.885 2.621-1.325 4.342-1.325 1.287 0 2.46.28 3.522.846a6.528 6.528 0 0 1 2.552 2.446l-3.985 2.122c-.499-.904-1.194-1.353-2.089-1.353s-1.305.285-1.305.86Z"/>
  </g>
</svg>
